<?xml version="1.0" standalone="no"?>
<!DOCTYPE svg PUBLIC "-//W3C//DTD SVG 20010904//EN"
 "http://www.w3.org/TR/2001/REC-SVG-20010904/DTD/svg10.dtd">
<svg version="1.0" xmlns="http://www.w3.org/2000/svg"
 width="1280.000000pt" height="1280.000000pt" viewBox="0 0 1280.000000 1280.000000"
 preserveAspectRatio="xMidYMid meet">

<g transform="translate(0.000000,1280.000000) scale(0.100000,-0.100000)"
fill="#000000" stroke="none">
<path d="M7002 8856 c-111 -16 -120 -25 -133 -149 -9 -82 -8 -105 6 -153 32
-112 139 -297 209 -363 43 -42 45 -51 9 -51 -33 0 -99 -16 -131 -32 -36 -18
-59 -67 -72 -154 -19 -128 9 -193 144 -324 42 -41 80 -88 85 -105 5 -16 12
-104 14 -195 5 -146 3 -168 -13 -201 -36 -70 -114 -75 -225 -14 -33 18 -100
45 -150 60 -247 73 -359 110 -450 150 -55 24 -127 50 -160 59 -75 19 -281 87
-489 160 -88 31 -224 72 -304 92 -132 33 -152 36 -230 29 -108 -9 -165 -26
-211 -63 -20 -16 -47 -34 -59 -41 -13 -7 -30 -28 -38 -46 -24 -57 -18 -101 22
-166 20 -32 34 -64 31 -71 -2 -8 -29 -21 -59 -31 -49 -15 -60 -15 -124 -2
-134 28 -214 13 -313 -60 -70 -52 -121 -137 -121 -204 0 -71 38 -169 84 -220
56 -60 66 -80 66 -136 0 -73 -39 -147 -95 -178 -11 -6 -65 -15 -120 -19 -55
-4 -121 -11 -146 -14 -35 -4 -59 -1 -95 15 -49 21 -280 92 -340 105 -18 4 -43
20 -58 36 -14 16 -49 42 -78 56 -70 35 -167 101 -192 131 -23 26 -59 49 -176
112 -41 22 -100 61 -130 87 -125 103 -497 246 -646 247 -97 1 -164 -25 -232
-88 -64 -60 -74 -93 -63 -205 6 -56 17 -94 39 -136 17 -33 55 -111 85 -174 30
-63 81 -151 113 -195 32 -44 69 -107 82 -139 23 -56 23 -61 8 -93 -20 -43 -21
-135 -1 -177 17 -36 96 -108 160 -146 62 -37 185 -131 185 -142 0 -5 -8 -12
-17 -15 -10 -4 -57 -33 -106 -65 -48 -32 -106 -67 -129 -79 -40 -21 -170 -125
-195 -157 -8 -9 -13 -45 -13 -84 0 -65 2 -72 39 -121 22 -29 55 -79 73 -112
28 -50 41 -62 78 -77 25 -10 92 -36 150 -59 101 -39 109 -41 210 -40 58 0 132
5 165 11 97 16 214 12 260 -9 43 -19 104 -81 129 -130 9 -16 22 -58 30 -91 19
-79 23 -86 154 -218 85 -86 117 -112 144 -116 18 -3 177 -10 353 -15 266 -7
328 -6 365 6 67 21 344 42 419 32 73 -10 200 -61 242 -96 59 -50 75 -121 42
-190 -20 -43 -63 -70 -123 -79 -25 -3 -70 -21 -101 -40 -31 -18 -68 -38 -83
-43 -69 -27 -74 -160 -9 -232 20 -22 55 -51 78 -65 58 -34 321 -130 396 -145
121 -24 530 14 674 62 63 21 93 40 194 126 173 147 379 198 611 150 55 -11
171 -21 330 -27 359 -15 686 -30 845 -40 207 -13 291 -42 430 -151 81 -63 108
-75 217 -100 80 -18 114 -20 248 -16 164 5 333 32 392 63 36 19 206 116 241
138 18 12 41 12 127 4 127 -11 367 -2 470 19 41 8 104 27 140 43 36 15 84 33
107 39 63 17 294 119 318 140 11 10 61 44 110 76 50 31 101 67 114 79 33 30
107 128 130 173 10 21 51 71 90 112 42 44 73 86 77 104 3 17 22 78 41 136 19
58 38 142 44 186 5 44 18 110 29 147 42 139 10 369 -67 492 -14 21 -32 62 -40
90 -36 120 -117 255 -273 452 -22 29 -66 98 -96 155 -31 57 -63 112 -71 121
-12 13 -13 24 -4 50 15 49 36 205 36 268 0 54 -23 153 -51 219 -38 88 -240
318 -329 375 -130 83 -204 99 -429 93 -94 -2 -182 -7 -196 -10 -22 -6 -33 2
-82 61 -91 109 -168 227 -244 373 -148 285 -255 440 -420 606 -67 68 -166 123
-220 123 -17 0 -46 -10 -64 -23 -30 -19 -35 -31 -47 -92 -13 -68 -12 -162 2
-297 7 -58 5 -69 -9 -74 -23 -9 -57 2 -97 30 -19 14 -61 39 -94 55 -33 17
-116 78 -185 136 -280 236 -347 287 -655 493 -221 148 -399 234 -475 231 -14
-1 -62 -7 -108 -13z m-2358 -1750 c49 -20 76 -60 76 -113 0 -38 -6 -51 -33
-78 -51 -51 -132 -68 -187 -40 -42 22 -60 53 -60 105 1 57 17 87 66 116 44 27
90 30 138 10z m-2153 -60 c141 -49 317 -192 378 -305 45 -85 57 -164 37 -235
-49 -167 -222 -216 -379 -107 -165 115 -347 386 -347 519 0 59 29 109 80 135
42 22 159 19 231 -7z m6873 -208 c3 -62 35 -243 52 -291 31 -88 107 -202 189
-282 115 -114 247 -180 408 -205 29 -5 81 -13 117 -20 117 -21 277 20 377 96
77 59 52 4 -42 -89 -68 -68 -120 -100 -244 -148 -79 -31 -124 -42 -181 -46
-109 -7 -245 11 -315 42 -72 32 -255 143 -255 156 0 5 -23 26 -51 46 -41 32
-58 54 -94 129 -61 125 -68 158 -72 324 -3 119 -1 152 13 190 21 53 83 154 91
146 3 -3 6 -25 7 -48z m-4112 -150 c21 -14 26 -27 30 -75 11 -119 88 -213 233
-286 39 -19 154 -63 255 -97 296 -100 388 -134 504 -185 117 -51 231 -119 231
-138 0 -27 -266 -106 -423 -127 -335 -43 -451 -91 -516 -210 -37 -69 -48 -152
-30 -230 22 -95 49 -138 158 -245 109 -109 235 -198 403 -286 56 -30 104 -59
107 -65 2 -6 -20 -46 -49 -90 -71 -103 -90 -165 -89 -279 0 -77 4 -97 26 -140
28 -54 76 -103 151 -155 26 -18 47 -39 47 -46 0 -36 -195 -168 -325 -221 -99
-40 -170 -50 -243 -33 -46 10 -65 22 -107 64 -65 65 -86 119 -114 295 -24 143
-40 200 -74 259 -114 198 -292 317 -595 399 -78 20 -121 26 -217 26 -150 1
-191 -10 -395 -111 l-155 -76 -105 -1 c-98 0 -108 2 -153 29 -95 56 -140 144
-118 230 6 25 38 94 70 153 73 133 88 193 71 272 -6 31 -23 73 -37 93 -62 91
-218 186 -489 297 -111 46 -162 83 -202 145 -23 36 -26 52 -26 131 -1 86 1 93
34 149 23 37 49 66 76 82 38 22 51 24 184 24 179 0 231 14 306 82 28 27 61 48
72 48 33 0 134 -76 183 -137 25 -32 79 -112 120 -177 152 -244 305 -349 559
-387 72 -10 86 -9 127 6 54 21 124 82 161 140 20 31 27 57 30 116 7 112 -8
155 -142 414 -16 31 -21 59 -21 120 0 124 37 175 163 226 63 25 284 23 324 -3z
m-2437 -1212 c43 -18 69 -57 61 -92 -19 -73 -162 -170 -286 -194 -64 -12 -142
0 -179 29 -68 52 51 194 210 251 64 23 147 25 194 6z m5581 -668 c-32 -111
-32 -308 -1 -422 82 -299 353 -518 660 -533 118 -6 198 10 299 58 56 27 69 30
77 18 20 -32 9 -79 -33 -140 -35 -53 -51 -66 -107 -92 -36 -17 -95 -47 -131
-68 -95 -56 -213 -79 -405 -79 -241 1 -326 30 -450 155 -45 45 -82 102 -152
238 -26 51 -57 150 -74 234 -15 74 -6 152 36 303 29 103 57 148 159 255 82 86
135 118 122 73z"/>
</g>
</svg>
